<?xml version="1.0" standalone="no"?>
<!DOCTYPE svg PUBLIC "-//W3C//DTD SVG 20010904//EN"
 "http://www.w3.org/TR/2001/REC-SVG-20010904/DTD/svg10.dtd">
<svg version="1.0" xmlns="http://www.w3.org/2000/svg"
 width="500.000000pt" height="261.000000pt" viewBox="0 0 500.000000 261.000000"
 preserveAspectRatio="xMidYMid meet">

<g transform="translate(0.000000,261.000000) scale(0.100000,-0.100000)"
fill="#000000" stroke="none">
<path d="M0 2392 l0 -217 118 4 c155 5 195 5 272 -4 40 -4 82 -2 110 5 25 6
65 10 90 9 25 -2 64 -2 88 -1 23 0 42 -2 42 -6 0 -4 12 -9 27 -10 14 -1 34 -9
43 -17 23 -21 75 -9 95 22 9 14 19 22 22 19 3 -3 -2 -12 -11 -21 -9 -9 -16
-22 -16 -28 0 -8 4 -7 12 1 21 21 29 13 11 -12 -14 -18 -21 -21 -31 -13 -11 9
-13 7 -11 -9 5 -24 -28 -77 -41 -69 -6 3 -7 0 -4 -8 3 -8 1 -18 -5 -22 -14 -8
-14 -25 -1 -25 6 0 10 6 10 13 0 7 8 20 18 29 9 8 28 31 42 49 25 36 320 333
320 323 0 -3 -5 -15 -11 -27 l-11 -22 20 22 c21 21 62 22 62 1 0 -5 4 -7 8 -4
5 3 10 -27 11 -67 3 -85 11 -104 11 -25 0 53 28 148 30 103 1 -19 2 -19 12 3
6 12 16 23 22 23 38 6 53 2 71 -17 16 -17 24 -19 39 -10 14 8 20 8 23 -1 2 -7
11 -9 20 -6 12 5 14 3 8 -8 -7 -10 -1 -9 18 4 15 10 45 17 71 17 25 0 55 4 69
9 32 12 51 -1 42 -29 -5 -16 -4 -21 6 -18 8 3 15 14 17 25 5 30 55 47 147 49
44 1 159 5 255 7 134 4 182 2 207 -8 18 -8 33 -11 33 -8 0 3 7 0 15 -7 9 -7
15 -20 14 -29 -1 -9 -1 -27 0 -41 l2 -25 24 28 c29 33 31 29 8 -21 -9 -20 -15
-41 -14 -45 1 -5 -12 -22 -29 -38 -29 -30 -38 -49 -22 -49 14 0 47 42 71 89
30 59 74 116 79 102 3 -9 7 -9 18 0 10 8 17 7 29 -5 24 -24 28 -20 21 19 -6
32 -5 35 17 35 12 0 29 6 36 13 11 10 11 8 2 -10 -15 -29 -14 -38 3 -24 10 8
8 0 -5 -26 -33 -65 -18 -197 28 -245 26 -27 46 -31 26 -6 -11 15 -17 100 -8
128 7 22 74 66 94 62 7 -2 11 0 8 5 -8 12 212 10 221 -2 4 -6 21 -12 37 -13
23 -1 26 1 15 8 -13 9 -13 10 0 10 24 -1 55 -32 95 -94 20 -31 40 -54 45 -51
16 10 50 -82 56 -154 6 -60 3 -76 -16 -112 -24 -48 -110 -152 -118 -144 -3 2
1 13 9 22 7 10 -2 4 -21 -13 -47 -43 -73 -49 -113 -28 -17 9 -53 27 -79 40
-27 13 -47 28 -45 33 1 5 -2 10 -8 11 -5 1 -29 18 -53 37 -41 34 -44 34 -57
17 -8 -11 -18 -39 -24 -64 -5 -25 -17 -49 -26 -55 -10 -5 -27 -18 -39 -28 -20
-16 -20 -17 -1 -11 15 4 17 4 6 -4 -8 -6 -19 -8 -26 -6 -17 7 -37 -20 -29 -40
3 -9 9 -14 13 -12 4 3 7 -4 8 -14 1 -11 -3 -23 -9 -26 -7 -5 -9 -2 -5 9 3 9 0
18 -9 21 -8 3 -14 -1 -14 -9 0 -8 -8 -18 -17 -24 -17 -9 -17 -10 0 -16 20 -8
23 -25 3 -25 -19 0 -24 -18 -18 -62 3 -29 8 -35 21 -31 11 4 13 3 6 -5 -8 -9
-21 -9 -45 -2 -19 6 -67 10 -105 10 -88 0 -156 -31 -214 -96 -65 -74 -89 -187
-60 -284 33 -108 156 -200 269 -200 32 0 62 -4 65 -10 3 -5 21 -17 40 -26 19
-9 35 -20 35 -25 0 -5 6 -9 14 -9 16 0 83 -71 120 -126 24 -37 26 -47 24 -139
-1 -55 0 -123 4 -151 l6 -51 -88 -57 c-52 -33 -94 -54 -103 -50 -13 4 -15 -4
-14 -49 1 -30 5 -53 8 -51 4 2 15 -37 25 -86 l18 -90 42 0 43 0 -9 31 c-5 16
-6 38 -3 47 9 24 42 54 52 47 5 -3 13 -1 16 5 4 6 15 8 25 5 10 -3 22 -1 25 6
11 16 25 -9 25 -45 0 -21 4 -27 15 -23 19 8 31 -13 14 -24 -10 -6 -5 -8 16 -8
17 0 24 3 18 6 -7 2 -13 16 -13 29 0 21 3 23 19 14 17 -8 19 -7 17 15 -2 14 1
22 6 19 6 -4 8 -20 6 -36 -3 -16 0 -32 5 -35 6 -3 7 -1 3 5 -4 7 -3 12 2 12
19 0 20 -27 2 -40 -32 -23 -12 -30 81 -30 95 0 97 1 90 58 -1 7 15 32 36 56
l38 44 0 121 c0 67 -2 121 -5 121 -22 0 -50 153 -39 210 4 19 6 37 4 39 -7 7
-26 -52 -40 -122 -7 -38 -15 -71 -19 -74 -3 -3 0 -15 5 -26 13 -23 2 -150 -11
-142 -5 3 -7 12 -4 20 3 7 0 24 -7 36 -9 17 -9 24 0 27 16 5 14 22 -4 22 -15
0 -31 61 -20 79 3 6 2 11 -2 11 -5 0 -13 14 -18 32 -8 24 -22 38 -62 59 -29
15 -53 23 -53 18 0 -5 -9 -9 -20 -9 -12 0 -20 -7 -20 -16 0 -13 -3 -14 -15 -4
-8 6 -18 9 -23 7 -11 -7 -24 3 -39 30 -8 13 -9 24 -3 28 5 3 7 12 3 20 -10 28
17 45 71 45 28 0 56 4 63 8 6 4 -23 7 -64 7 -46 0 -83 5 -94 13 -30 21 -109
129 -109 149 0 10 11 31 24 48 18 22 23 38 19 60 -4 24 3 41 31 77 19 26 29
45 21 42 -11 -5 -12 1 -3 33 16 57 5 170 -21 221 -18 35 -19 42 -6 42 9 0 48
16 89 35 71 33 113 67 143 112 9 13 19 21 23 18 4 -3 13 14 19 38 15 54 45
112 57 110 5 -1 23 -4 39 -8 l30 -7 -23 19 -23 19 35 12 c41 15 162 141 182
189 8 18 14 48 14 67 0 19 6 37 12 39 10 4 10 8 -1 15 -8 6 -9 12 -3 16 6 3
16 -7 24 -24 7 -16 17 -30 23 -30 5 0 26 -15 46 -34 l37 -33 45 38 c65 56 85
61 237 57 126 -3 137 -2 158 18 29 27 122 74 147 74 47 1 50 16 39 220 -3 66
-1 100 4 91 5 -7 11 -9 13 -3 2 5 69 12 149 16 146 6 165 7 365 7 61 0 133 2
162 4 40 4 52 1 57 -12 4 -9 4 -18 1 -21 -3 -3 -5 -1 -5 4 0 5 -9 10 -20 10
-11 0 -20 -4 -20 -9 0 -4 -6 -5 -12 0 -7 4 -23 8 -36 9 -19 1 -23 -3 -18 -20
3 -12 -3 -38 -15 -61 -17 -33 -19 -45 -10 -68 l11 -28 22 23 c13 13 17 17 11
8 -23 -29 -14 -34 12 -6 13 14 28 26 34 26 5 0 26 19 45 43 46 55 126 100 144
81 7 -7 19 -11 27 -8 12 5 15 25 15 90 l0 84 -2500 0 -2500 0 0 -218z m3300
-192 c0 -52 -12 -69 -35 -50 -20 17 -19 30 3 31 16 1 16 2 0 6 -26 6 -22 23 5
23 15 0 18 3 9 8 -7 5 -10 16 -7 24 4 10 -4 23 -19 36 -14 11 -26 26 -26 33 0
8 16 -3 35 -24 30 -33 35 -45 35 -87z m-45 45 c0 -10 -4 -20 -10 -22 -5 -1
-10 8 -10 22 0 14 5 24 10 22 6 -2 10 -12 10 -22z m50 -124 c3 -5 1 -12 -5
-16 -5 -3 -10 1 -10 9 0 18 6 21 15 7z m-361 -522 c-9 -10 -22 -19 -28 -19 -6
0 -5 5 2 12 7 7 12 18 12 25 0 8 6 20 13 27 10 12 13 11 15 -6 2 -11 -4 -28
-14 -39z m-339 -28 c3 -5 1 -12 -5 -16 -5 -3 -10 1 -10 9 0 18 6 21 15 7z
m316 -44 c-12 -19 -27 -40 -35 -46 -12 -10 -12 -6 -1 25 12 35 43 69 53 59 2
-2 -5 -19 -17 -38z m-304 7 c-3 -3 -12 -4 -19 -1 -8 3 -5 6 6 6 11 1 17 -2 13
-5z m252 -25 c-13 -25 -34 -49 -43 -49 -3 0 7 18 21 40 28 42 43 48 22 9z
m-46 6 c-3 -9 -8 -14 -10 -11 -3 3 -2 9 2 15 9 16 15 13 8 -4z m-335 -252 c45
-20 82 -43 82 -50 0 -14 -149 -93 -175 -93 -12 0 -15 16 -15 90 0 65 3 90 13
90 6 0 49 -17 95 -37z m489 -865 c33 -36 46 -64 37 -80 -4 -6 -14 6 -24 27
l-17 37 -7 -32 c-6 -32 -6 -32 -32 -15 -29 18 -43 15 -19 -5 19 -16 19 -30 1
-30 -8 0 -17 -7 -20 -16 -5 -14 -7 -14 -22 0 -8 9 -21 16 -27 16 -8 0 -8 -3 1
-9 10 -6 10 -10 -1 -20 -8 -6 -19 -11 -23 -10 -5 1 -17 -1 -28 -6 -11 -5 -21
-3 -26 5 -6 9 -9 6 -12 -11 -2 -13 -9 -23 -16 -21 -7 1 -31 -7 -54 -18 -53
-25 -66 -25 -43 0 10 11 26 20 37 20 22 0 61 42 65 70 3 18 0 19 -17 10 -19
-10 -20 -9 -9 7 6 10 32 27 58 37 25 9 53 21 62 26 12 6 19 3 27 -13 10 -21
11 -21 11 5 1 27 1 27 36 12 43 -18 45 -18 45 1 0 9 -7 18 -15 21 -8 4 -15 10
-15 15 0 17 16 9 47 -23z m70 -80 c-3 -8 -6 -5 -6 6 -1 11 2 17 5 13 3 -3 4
-12 1 -19z m-49 -83 c3 -25 1 -27 -20 -22 l-23 6 21 -17 c15 -13 20 -26 17
-51 -4 -41 -5 -43 -26 -35 -17 6 -33 40 -28 63 1 7 -2 10 -8 6 -19 -11 -31 5
-19 25 7 10 15 17 19 14 4 -2 14 8 24 22 20 31 39 27 43 -11z"/>
<path d="M4643 2325 c-3 -9 -3 -18 -1 -21 3 -3 8 4 11 16 6 23 -1 27 -10 5z"/>
<path d="M2945 2227 c-37 -21 -40 -26 -38 -62 2 -25 10 -43 23 -52 11 -8 17
-19 14 -25 -5 -8 -1 -9 10 -5 10 4 23 7 30 7 21 0 66 47 66 70 0 28 -18 25
-48 -7 -16 -18 -27 -23 -30 -15 -2 6 -10 12 -17 12 -7 0 -15 6 -18 14 -9 23
21 55 58 62 20 3 38 10 41 15 11 18 -52 8 -91 -14z"/>
<path d="M4680 2180 c0 -5 5 -10 10 -10 6 0 10 5 10 10 0 6 -4 10 -10 10 -5 0
-10 -4 -10 -10z"/>
<path d="M4910 2170 c-25 -10 -44 -23 -43 -29 2 -6 -12 -15 -30 -20 l-32 -9
35 -2 c19 -1 27 -4 18 -7 -32 -8 -19 -23 21 -23 65 0 120 40 121 88 0 27 -25
28 -90 2z"/>
<path d="M1294 2113 c6 -42 3 -51 -24 -84 -36 -46 -37 -49 -5 -49 25 0 30 -11
26 -55 -2 -23 -56 -75 -78 -75 -32 0 12 -95 85 -184 22 -26 45 -66 53 -89 16
-49 48 -117 48 -102 1 6 -6 32 -14 59 -8 27 -15 70 -15 95 0 55 -44 404 -60
479 -14 65 -25 68 -16 5z"/>
<path d="M2733 2110 c-13 -5 -23 -15 -23 -22 1 -17 35 -58 49 -58 7 0 14 -6
17 -14 4 -10 14 -12 42 -5 20 4 40 5 45 2 8 -5 4 32 -9 78 -8 27 -75 37 -121
19z m100 -26 c3 -3 -3 -15 -13 -26 -12 -14 -25 -18 -39 -13 -12 3 -19 11 -16
16 4 5 -1 9 -10 9 -9 0 -13 5 -10 10 7 11 78 14 88 4z"/>
<path d="M2326 2084 c-12 -31 -6 -35 24 -17 17 9 30 21 30 26 0 5 -7 4 -15 -3
-10 -9 -15 -9 -15 -1 0 17 -17 13 -24 -5z"/>
<path d="M4525 2080 c-3 -5 -1 -10 4 -10 6 0 11 5 11 10 0 6 -2 10 -4 10 -3 0
-8 -4 -11 -10z"/>
<path d="M914 1994 c3 -9 6 -18 6 -20 0 -2 12 -4 28 -4 l27 0 -25 20 c-30 24
-44 25 -36 4z"/>
<path d="M2950 1970 c-9 -6 -10 -10 -3 -10 6 0 15 5 18 10 8 12 4 12 -15 0z"/>
<path d="M3360 1969 c0 -5 5 -7 10 -4 6 3 10 8 10 11 0 2 -4 4 -10 4 -5 0 -10
-5 -10 -11z"/>
<path d="M760 1950 c-6 -11 -9 -20 -8 -20 2 0 11 9 21 20 9 11 13 20 7 20 -5
0 -14 -9 -20 -20z"/>
<path d="M2646 1918 c-23 -58 -13 -104 10 -48 8 19 14 48 12 65 -3 29 -4 29
-22 -17z"/>
<path d="M2875 1948 c7 -18 42 -31 51 -17 3 5 -3 9 -13 9 -11 0 -25 6 -32 13
-10 10 -11 9 -6 -5z"/>
<path d="M3315 1950 c3 -5 8 -10 11 -10 2 0 4 5 4 10 0 6 -5 10 -11 10 -5 0
-7 -4 -4 -10z"/>
<path d="M3498 1953 c7 -3 16 -2 19 1 4 3 -2 6 -13 5 -11 0 -14 -3 -6 -6z"/>
<path d="M2980 1904 c-36 -13 -67 -23 -70 -24 -3 0 6 -10 19 -20 28 -24 54
-25 72 -4 11 13 9 15 -12 11 -13 -2 -18 -2 -11 0 6 3 12 8 12 13 0 5 8 8 18 7
15 -1 72 30 72 39 0 9 -39 0 -100 -22z"/>
<path d="M4515 1890 c-3 -5 -1 -10 4 -10 6 0 11 5 11 10 0 6 -2 10 -4 10 -3 0
-8 -4 -11 -10z"/>
<path d="M4238 1863 c7 -3 16 -2 19 1 4 3 -2 6 -13 5 -11 0 -14 -3 -6 -6z"/>
<path d="M3460 1850 c0 -5 7 -7 15 -4 8 4 15 8 15 10 0 2 -7 4 -15 4 -8 0 -15
-4 -15 -10z"/>
<path d="M4387 1849 c7 -7 15 -10 18 -7 3 3 -2 9 -12 12 -14 6 -15 5 -6 -5z"/>
<path d="M4108 1833 c7 -3 16 -2 19 1 4 3 -2 6 -13 5 -11 0 -14 -3 -6 -6z"/>
<path d="M3995 1820 c3 -5 13 -10 21 -10 8 0 12 5 9 10 -3 6 -13 10 -21 10 -8
0 -12 -4 -9 -10z"/>
<path d="M4190 1820 c0 -5 9 -10 21 -10 11 0 17 5 14 10 -3 6 -13 10 -21 10
-8 0 -14 -4 -14 -10z"/>
<path d="M4448 1798 c9 -9 15 -9 24 0 9 9 7 12 -12 12 -19 0 -21 -3 -12 -12z"/>
<path d="M3940 1791 c0 -5 7 -12 16 -15 24 -9 27 -7 10 9 -17 17 -26 19 -26 6z"/>
<path d="M790 1787 c0 -4 7 -21 15 -36 8 -16 11 -31 8 -35 -4 -3 -2 -6 3 -6 5
0 18 -16 28 -35 11 -19 29 -41 41 -49 16 -11 21 -22 18 -40 -4 -21 0 -28 23
-38 39 -17 69 -50 93 -103 5 -11 21 -33 35 -50 14 -16 33 -43 40 -60 8 -16 24
-38 36 -48 l21 -18 -21 -17 c-21 -17 -20 -17 16 -20 47 -3 57 -10 51 -34 -4
-14 -2 -18 10 -14 8 3 26 9 40 12 23 6 24 5 13 -16 -14 -26 -8 -37 10 -15 7 8
21 15 31 15 30 0 89 -33 89 -49 0 -12 2 -13 8 -4 4 7 9 79 10 160 1 86 -2 142
-7 134 -5 -7 -9 -31 -9 -52 0 -21 -5 -47 -11 -58 -12 -21 -53 -34 -89 -26 -19
3 -23 1 -17 -13 4 -12 -3 -9 -22 9 -15 14 -45 36 -65 48 -20 12 -61 52 -89 89
-130 165 -167 211 -219 268 -30 34 -63 72 -72 85 -9 13 -17 20 -18 16z"/>
<path d="M4290 1780 c20 -13 33 -13 25 0 -3 6 -14 10 -23 10 -15 0 -15 -2 -2
-10z"/>
<path d="M4330 1770 c0 -7 24 -20 36 -20 13 0 1 19 -16 23 -11 3 -20 2 -20 -3z"/>
<path d="M4445 1760 c-3 -5 -1 -10 4 -10 6 0 11 5 11 10 0 6 -2 10 -4 10 -3 0
-8 -4 -11 -10z"/>
<path d="M3200 1751 c0 -8 -7 -23 -17 -33 -23 -26 -7 -36 18 -11 17 17 19 25
10 39 -7 13 -10 15 -11 5z"/>
<path d="M4395 1750 c-3 -6 1 -7 9 -4 18 7 21 14 7 14 -6 0 -13 -4 -16 -10z"/>
<path d="M3300 1739 c0 -5 5 -7 10 -4 6 3 10 8 10 11 0 2 -4 4 -10 4 -5 0 -10
-5 -10 -11z"/>
<path d="M3485 1730 c3 -5 11 -10 16 -10 6 0 7 5 4 10 -3 6 -11 10 -16 10 -6
0 -7 -4 -4 -10z"/>
<path d="M625 1704 c-9 -14 -14 -28 -12 -31 3 -3 13 9 22 26 19 38 14 41 -10
5z"/>
<path d="M3600 1721 c0 -5 5 -13 10 -16 6 -3 10 -2 10 4 0 5 -4 13 -10 16 -5
3 -10 2 -10 -4z"/>
<path d="M3481 1674 c0 -11 3 -14 6 -6 3 7 2 16 -1 19 -3 4 -6 -2 -5 -13z"/>
<path d="M3880 1679 c0 -5 5 -7 10 -4 6 3 10 8 10 11 0 2 -4 4 -10 4 -5 0 -10
-5 -10 -11z"/>
<path d="M3370 1669 c0 -5 5 -7 10 -4 6 3 10 8 10 11 0 2 -4 4 -10 4 -5 0 -10
-5 -10 -11z"/>
<path d="M3616 1617 c3 -10 9 -15 12 -12 3 3 0 11 -7 18 -10 9 -11 8 -5 -6z"/>
<path d="M3640 1622 c0 -5 7 -15 15 -22 8 -7 15 -9 15 -6 0 4 -7 14 -15 22 -8
9 -15 11 -15 6z"/>
<path d="M3680 1615 c7 -9 15 -13 17 -11 7 7 -7 26 -19 26 -6 0 -6 -6 2 -15z"/>
<path d="M3202 1596 c2 -21 6 -25 23 -20 15 4 16 3 6 -4 -7 -5 -10 -15 -6 -21
5 -9 10 -9 21 0 7 6 11 15 8 20 -2 5 8 12 23 16 l28 7 -30 7 c-16 4 -40 11
-52 14 -20 6 -23 4 -21 -19z"/>
<path d="M3305 1570 c-3 -5 -1 -10 4 -10 6 0 11 5 11 10 0 6 -2 10 -4 10 -3 0
-8 -4 -11 -10z"/>
<path d="M3630 1576 c0 -2 7 -9 15 -16 9 -7 15 -8 15 -2 0 5 -7 12 -15 16 -8
3 -15 4 -15 2z"/>
<path d="M3720 1562 l24 -20 -27 -4 c-26 -3 -27 -4 -13 -23 l15 -20 15 20 c19
25 16 34 -15 53 l-24 14 25 -20z"/>
<path d="M644 1551 c0 -10 5 -17 11 -15 6 3 19 -2 30 -11 19 -15 19 -15 -7 -9
-23 5 -29 2 -37 -17 -6 -18 -5 -25 5 -27 21 -5 17 -23 -3 -20 -14 2 -19 -5
-21 -34 -2 -22 1 -38 7 -38 6 0 11 7 11 16 0 21 24 12 28 -11 3 -12 0 -15 -10
-10 -10 6 -10 5 -1 -5 8 -8 10 -29 6 -56 -5 -39 -4 -42 15 -38 23 7 41 -14 22
-26 -10 -6 -11 -17 -3 -49 6 -22 7 -38 2 -35 -5 3 -9 -11 -9 -31 0 -35 2 -37
26 -31 17 5 23 3 19 -4 -3 -5 -18 -10 -32 -10 l-26 0 21 -23 c12 -13 22 -31
22 -40 0 -9 5 -17 10 -17 6 0 10 10 10 22 0 21 1 21 17 5 12 -12 14 -20 7 -27
-14 -14 -5 -70 13 -77 8 -3 18 0 23 6 10 18 49 -7 56 -36 3 -12 15 -25 25 -28
10 -4 19 -11 19 -16 0 -5 7 -9 15 -9 18 0 20 -17 3 -23 -10 -4 -10 -7 0 -18
16 -17 15 -39 -2 -39 -11 0 -13 -15 -11 -65 2 -50 0 -65 -11 -65 -8 0 -14 -10
-14 -25 0 -14 5 -25 10 -25 6 0 10 -9 10 -20 0 -11 -4 -20 -10 -20 -5 0 -10
-6 -10 -14 0 -15 26 -30 50 -28 8 1 5 -4 -8 -10 -22 -11 -27 -45 -6 -41 14 2
14 -28 2 -44 -6 -7 -7 -24 -4 -37 3 -14 2 -28 -4 -31 -5 -3 -10 -21 -10 -40 0
-42 -17 -55 -23 -18 -2 16 -5 3 -6 -27 0 -30 -6 -71 -11 -91 -13 -45 -69 -95
-124 -110 -23 -6 -44 -16 -48 -23 -5 -7 -8 -6 -8 4 0 12 -2 13 -9 1 -5 -7 -32
-16 -60 -19 -28 -2 -51 -8 -51 -13 0 -5 199 -9 446 -9 l446 0 -6 23 c-40 141
-44 277 -11 398 8 30 20 122 27 205 11 143 11 157 -10 250 -12 54 -24 113 -27
129 -5 24 -17 36 -62 58 -31 16 -106 61 -167 101 -61 40 -119 76 -130 79 -10
4 -31 17 -47 30 -66 50 -156 124 -184 149 -16 16 -34 28 -40 28 -5 0 -32 24
-60 54 -56 60 -91 78 -91 47z m83 -56 c5 -4 2 -5 -6 0 -11 6 -13 2 -9 -19 3
-14 2 -29 -3 -32 -10 -6 -31 31 -22 40 3 3 1 6 -5 6 -7 0 -12 4 -12 8 0 10 48
8 57 -3z m177 -581 c18 -7 12 -24 -10 -24 -8 0 -14 7 -14 15 0 17 2 18 24 9z
m76 -516 c0 -16 -5 -28 -13 -28 -9 0 -11 12 -9 41 5 46 22 35 22 -13z m-80
-218 c0 -5 -5 -10 -11 -10 -5 0 -7 5 -4 10 3 6 8 10 11 10 2 0 4 -4 4 -10z
m-160 -139 c0 -6 -4 -13 -10 -16 -5 -3 -10 1 -10 9 0 9 5 16 10 16 6 0 10 -4
10 -9z"/>
<path d="M4594 1549 c-26 -13 -78 -100 -96 -159 -20 -70 -16 -655 6 -775 9
-51 21 -204 27 -350 7 -143 13 -262 15 -264 2 -2 6 -2 9 1 8 8 -13 478 -25
563 -24 171 -30 254 -30 473 0 246 11 354 40 413 22 42 36 54 72 63 20 4 25
11 21 26 -6 22 -9 23 -39 9z"/>
<path d="M3214 1509 c0 -10 4 -19 8 -19 4 0 8 6 8 14 0 8 -4 17 -8 20 -4 2 -8
-4 -8 -15z"/>
<path d="M3540 1501 c0 -6 5 -13 10 -16 6 -3 10 1 10 9 0 9 -4 16 -10 16 -5 0
-10 -4 -10 -9z"/>
<path d="M590 1483 c0 -5 4 -15 10 -23 11 -18 25 -7 17 15 -6 15 -27 21 -27 8z"/>
<path d="M3520 1455 c0 -8 2 -15 4 -15 2 0 6 7 10 15 3 8 1 15 -4 15 -6 0 -10
-7 -10 -15z"/>
<path d="M3625 1460 c-3 -5 -2 -10 4 -10 5 0 13 5 16 10 3 6 2 10 -4 10 -5 0
-13 -4 -16 -10z"/>
<path d="M4870 1433 c5 -2 8 -9 4 -14 -3 -5 0 -9 6 -9 15 0 7 23 -8 26 -7 1
-8 0 -2 -3z"/>
<path d="M3640 1415 c0 -8 7 -15 15 -15 8 0 15 7 15 15 0 8 -7 15 -15 15 -8 0
-15 -7 -15 -15z"/>
<path d="M3634 1346 c0 -28 11 -26 19 4 3 12 0 20 -7 20 -7 0 -12 -11 -12 -24z"/>
<path d="M3236 1345 c4 -8 11 -15 16 -15 6 0 5 6 -2 15 -7 8 -14 15 -16 15 -2
0 -1 -7 2 -15z"/>
<path d="M3560 1300 c0 -5 5 -10 10 -10 6 0 10 5 10 10 0 6 -4 10 -10 10 -5 0
-10 -4 -10 -10z"/>
<path d="M3611 1273 c-10 -26 -10 -27 4 -9 8 11 15 23 15 28 0 15 -7 8 -19
-19z"/>
<path d="M3355 1271 c-3 -5 -1 -12 5 -16 5 -3 10 1 10 9 0 18 -6 21 -15 7z"/>
<path d="M3300 1255 c0 -2 9 -9 20 -15 16 -9 18 -8 14 5 -5 13 -34 22 -34 10z"/>
<path d="M2938 1224 c-38 -20 -35 -24 7 -11 19 6 35 14 35 19 0 11 -11 10 -42
-8z"/>
<path d="M3350 1225 c0 -3 16 -28 35 -55 19 -27 35 -52 35 -54 0 -2 -19 -2
-42 0 -42 4 -41 4 10 -10 29 -7 63 -23 76 -35 l23 -21 13 27 c8 16 16 31 18
36 2 4 -6 7 -18 7 -16 0 -20 4 -16 16 4 12 1 14 -14 9 -23 -7 -80 28 -80 50 0
8 -9 19 -20 25 -11 6 -20 8 -20 5z"/>
<path d="M1170 1210 c-9 -6 -10 -10 -3 -10 6 0 15 5 18 10 8 12 4 12 -15 0z"/>
<path d="M3003 1204 c9 -11 17 -26 17 -32 0 -7 10 -12 23 -12 12 0 40 -7 62
-14 49 -17 126 -24 122 -11 -1 6 -13 10 -27 10 -19 0 -24 5 -23 20 2 12 -8 28
-24 39 -21 16 -29 17 -46 7 -16 -10 -21 -10 -28 1 -7 10 -9 10 -10 -2 -1 -8
-1 -21 0 -29 2 -14 -3 -12 -54 23 -30 20 -30 20 -12 0z"/>
<path d="M3420 1201 c0 -5 7 -11 14 -14 10 -4 13 -1 9 9 -6 15 -23 19 -23 5z"/>
<path d="M3535 1190 c-3 -5 1 -10 10 -10 9 0 13 5 10 10 -3 6 -8 10 -10 10 -2
0 -7 -4 -10 -10z"/>
<path d="M2837 1156 c-16 -13 -38 -32 -50 -40 -21 -16 -20 -16 8 -2 17 8 41
26 54 40 31 33 25 33 -12 2z"/>
<path d="M3510 1151 c0 -12 29 -23 41 -15 16 10 9 20 -16 22 -14 1 -25 -2 -25
-7z"/>
<path d="M3278 1123 c7 -3 16 -2 19 1 4 3 -2 6 -13 5 -11 0 -14 -3 -6 -6z"/>
<path d="M1402 1075 c0 -16 2 -22 5 -12 2 9 2 23 0 30 -3 6 -5 -1 -5 -18z"/>
<path d="M3425 990 c3 -5 8 -10 11 -10 2 0 4 5 4 10 0 6 -5 10 -11 10 -5 0 -7
-4 -4 -10z"/>
<path d="M2511 785 c-2 -36 -34 -108 -44 -98 -11 10 -8 -70 3 -87 7 -12 9 -11
8 5 -1 11 9 52 21 92 13 39 21 82 18 95 -4 19 -5 18 -6 -7z"/>
<path d="M852 773 c4 -20 22 -21 26 -2 2 9 -4 16 -13 16 -9 0 -15 -7 -13 -14z"/>
<path d="M857 670 c3 -11 8 -20 12 -20 3 0 12 9 19 20 11 18 10 20 -12 20 -19
0 -23 -4 -19 -20z"/>
<path d="M2501 444 c0 -11 3 -14 6 -6 3 7 2 16 -1 19 -3 4 -6 -2 -5 -13z"/>
<path d="M4181 423 c0 -6 -13 -26 -28 -44 -25 -30 -26 -31 -5 -25 13 5 22 3
22 -3 0 -6 -4 -11 -10 -11 -5 0 -10 -11 -10 -25 0 -14 5 -25 10 -25 6 0 8 -11
4 -27 -10 -40 -15 -47 -25 -32 -7 11 -12 12 -29 1 -18 -11 -20 -10 -20 8 0 52
-38 3 -117 -148 -24 -45 -43 -84 -43 -87 0 -11 89 -4 94 8 5 10 7 10 12 0 3
-8 24 -13 50 -13 35 0 44 4 44 18 1 16 1 16 14 -1 7 -9 25 -17 39 -17 l26 0
-6 117 c-7 144 -20 322 -22 306z m-48 -230 c12 5 15 -1 14 -29 -1 -24 -6 -33
-15 -29 -8 3 -17 5 -20 5 -4 0 -7 16 -8 35 0 20 3 30 7 24 4 -7 14 -9 22 -6z
m-23 -77 c0 -3 -4 -8 -10 -11 -5 -3 -10 -1 -10 4 0 6 5 11 10 11 6 0 10 -2 10
-4z m46 -52 c-3 -8 -10 -14 -16 -14 -14 0 -13 26 3 51 12 20 12 20 15 -1 2
-12 1 -28 -2 -36z"/>
<path d="M3721 404 c0 -11 3 -14 6 -6 3 7 2 16 -1 19 -3 4 -6 -2 -5 -13z"/>
<path d="M2091 354 c0 -11 3 -14 6 -6 3 7 2 16 -1 19 -3 4 -6 -2 -5 -13z"/>
<path d="M2502 310 c0 -19 4 -46 8 -60 6 -20 8 -21 8 -5 1 11 -3 38 -7 60 l-9
40 0 -35z"/>
<path d="M3687 272 c-9 -26 -30 -61 -47 -79 -17 -18 -30 -43 -30 -57 0 -14 -6
-29 -13 -33 -7 -4 -18 -24 -23 -43 -6 -21 -20 -40 -34 -47 -23 -12 -21 -13 26
-13 l50 0 32 63 c27 55 72 240 60 252 -2 2 -11 -17 -21 -43z"/>
<path d="M4090 288 c0 -7 4 -19 9 -26 6 -10 10 -10 20 2 7 8 10 20 6 26 -9 14
-35 13 -35 -2z"/>
<path d="M2071 184 c0 -11 3 -14 6 -6 3 7 2 16 -1 19 -3 4 -6 -2 -5 -13z"/>
<path d="M97 29 c-43 -24 -8 -29 215 -29 173 0 229 3 221 11 -14 14 -259 19
-285 7 -11 -5 -26 -3 -38 4 -15 10 -22 10 -31 1 -9 -9 -18 -9 -38 2 -18 9 -32
10 -44 4z"/>
<path d="M2062 20 c0 -14 2 -19 5 -12 2 6 2 18 0 25 -3 6 -5 1 -5 -13z"/>
<path d="M0 14 c0 -9 11 -14 31 -14 35 0 31 15 -6 22 -17 4 -25 1 -25 -8z"/>
</g>
</svg>
